<?xml version="1.0" encoding="UTF-8" standalone="no"?>
<!-- Created with Inkscape (http://www.inkscape.org/) -->

<svg
   width="210.0mm"
   height="148.0mm"
   viewBox="0 0 210.0 148.0"
   version="1.1"
   id="SVGRoot"
   sodipodi:docname="thergic.svg"
   xml:space="preserve"
   inkscape:version="1.2.2 (b0a8486541, 2022-12-01)"
   xmlns:inkscape="http://www.inkscape.org/namespaces/inkscape"
   xmlns:sodipodi="http://sodipodi.sourceforge.net/DTD/sodipodi-0.dtd"
   xmlns:xlink="http://www.w3.org/1999/xlink"
   xmlns="http://www.w3.org/2000/svg"
   xmlns:svg="http://www.w3.org/2000/svg"><sodipodi:namedview
     id="namedview592"
     pagecolor="#505050"
     bordercolor="#ffffff"
     borderopacity="1"
     inkscape:showpageshadow="0"
     inkscape:pageopacity="0"
     inkscape:pagecheckerboard="1"
     inkscape:deskcolor="#505050"
     inkscape:document-units="mm"
     showgrid="false"
     inkscape:zoom="0.65741662"
     inkscape:cx="-149.06833"
     inkscape:cy="486.75374"
     inkscape:window-width="1920"
     inkscape:window-height="1012"
     inkscape:window-x="1920"
     inkscape:window-y="0"
     inkscape:window-maximized="1"
     inkscape:current-layer="SVGRoot" /><defs
     id="defs587"><linearGradient
       inkscape:collect="always"
       id="linearGradient830"><stop
         style="stop-color:#2ad4ff;stop-opacity:1"
         offset="0"
         id="stop826" /><stop
         style="stop-color:#0088aa;stop-opacity:1"
         offset="1"
         id="stop828" /></linearGradient><linearGradient
       inkscape:collect="always"
       xlink:href="#linearGradient830"
       id="linearGradient1501"
       x1="34.300266"
       y1="-27.530796"
       x2="34.508438"
       y2="50.806637"
       gradientUnits="userSpaceOnUse" /></defs><g
     inkscape:label="Layer 1"
     inkscape:groupmode="layer"
     id="layer1"
     style="display:inline"><g
       id="g161"
       transform="matrix(0.87193579,0,0,0.87193579,18.652198,78.210687)"
       inkscape:export-filename="arise-source/config/logo.svg"
       inkscape:export-xdpi="72.812607"
       inkscape:export-ydpi="72.812607"><g
         id="layer2-5"
         inkscape:label="Layer 2"
         style="fill:#1a1a1a"><text
           xml:space="preserve"
           style="font-size:15.3443px;letter-spacing:-0.647476px;word-spacing:-3.02802px;fill:#666666;stroke-width:1.27869"
           x="28.102306"
           y="35.445206"
           id="text1377-3"><tspan
             sodipodi:role="line"
             id="tspan1375-5"
             style="font-style:normal;font-variant:normal;font-weight:normal;font-stretch:normal;font-family:serif;-inkscape-font-specification:serif;fill:#666666;stroke-width:1.27869"
             x="28.102306"
             y="35.445206">Hypomnēma</tspan></text><text
           xml:space="preserve"
           style="font-size:15.3443px;letter-spacing:-0.647476px;word-spacing:-3.02802px;fill:#999999;stroke-width:1.27869"
           x="27.709785"
           y="35.798164"
           id="text788"><tspan
             sodipodi:role="line"
             id="tspan786"
             style="font-style:normal;font-variant:normal;font-weight:normal;font-stretch:normal;font-family:serif;-inkscape-font-specification:serif;fill:#999999;stroke-width:1.27869"
             x="27.709785"
             y="35.798164">Hypomnēma</tspan></text></g></g></g><g
     id="g979"
     style="display:inline;fill:#5f8dd3"
     transform="matrix(0.87193578,0,0,0.87193578,-45.924306,247.66704)"
     inkscape:export-filename="arise-source/arise-icon.png"
     inkscape:export-xdpi="72.812607"
     inkscape:export-ydpi="72.812607"><rect
       style="display:inline;fill:#1c241f;stroke-width:0.264583"
       id="rect1205"
       width="73.41333"
       height="73.41333"
       x="-6.013442"
       y="164.44855"
       rx="20"
       ry="20"
       transform="matrix(1.1468735,0,0,1.1468735,-20.905251,-281.46955)"
       inkscape:export-filename="./rect1205.png"
       inkscape:export-xdpi="103.79586"
       inkscape:export-ydpi="103.79586" /><path
       d="m -16.73403,-81.837052 -0.368517,12.883956 h 3.828281 l 0.368518,-3.16569 c 0.196321,-1.619649 0.711518,-3.01887 1.545884,-4.196792 0.834365,-1.227004 2.3313439,-1.840495 4.4908781,-1.840495 h 7.06735345 l 0.007911,61.760801 15.15795745,-17.440874 h -1.693188 c -1.668731,0 -3.092259,-0.294838 -4.2701858,-0.883805 C 8.2229318,-35.358 7.6342853,-36.830143 7.6342853,-39.136913 v -39.01916 h 7.1412677 c 2.208614,0 3.729901,0.613491 4.564265,1.840495 0.834366,1.177922 1.349564,2.577143 1.545885,4.196792 l 0.368518,3.16569 h 3.828281 l -0.368556,-12.883956 z m 38.03381,14.416036 0.04979,2.047032"
       style="display:inline;fill:#00ccff;fill-opacity:1;stroke-width:0.310659"
       id="path1717"
       sodipodi:nodetypes="cccccscccscscscccccccc" /><path
       sodipodi:type="star"
       style="fill:#00ccff;stroke-width:0.264583"
       id="path1801"
       inkscape:flatsided="false"
       sodipodi:sides="4"
       sodipodi:cx="45.672806"
       sodipodi:cy="195.05389"
       sodipodi:r1="12.081679"
       sodipodi:r2="6.0408401"
       sodipodi:arg1="1.5707963"
       sodipodi:arg2="2.3561945"
       inkscape:rounded="0"
       inkscape:randomized="0"
       d="m 45.672806,207.13557 -4.271519,-7.81016 -7.810161,-4.27152 7.810161,-4.27152 4.271518,-7.81016 4.27152,7.81017 7.81016,4.27151 -7.81016,4.27152 z"
       inkscape:transform-center-y="-2.4573719e-06"
       transform="matrix(1.1468735,0,0,1.1468735,-18.787527,-274.33784)" /></g><g
     inkscape:label="Layer 1"
     id="g350"
     transform="matrix(0.87193578,0,0,0.87193578,11.684728,67.385267)"
     style="display:inline;fill:#5f8dd3"><path
       id="path338"
       style="fill:#800080;fill-opacity:1;stroke-width:0.306248"
       d="m -8.0941919,-23.96483 -0.4166423,14.5664773 h 4.32822 l 0.4166423,-3.5790923 c 0.2219589,-1.831163 0.804438,-3.413109 1.747764,-4.744862 0.943326,-1.387245 2.63579667,-2.080841 5.0773464,-2.080841 h 7.9902865 l 0.0089,69.82621 17.137452,-19.7185 h -1.914303 c -1.886653,0 -3.496081,-0.333352 -4.827835,-0.999231 -1.331757,-0.721366 -1.997275,-2.385762 -1.997275,-4.99378 v -44.114699 h 8.073852 c 2.49704,0 4.216993,0.693596 5.160319,2.080841 0.943326,1.331753 1.525805,2.913699 1.747764,4.744862 l 0.416642,3.5790923 h 4.32822 L 38.766519,-23.96483 Z m 191.5920419,0.17168 -2.3908,4.487646 -4.43431,2.488593 4.48765,2.391397 2.48859,4.4343055 2.3914,-4.4882385 4.4343,-2.488593 -4.48824,-2.390804 z m -23.70179,15.5941555 c -4.21771,0 -7.75687,0.861442 -10.61756,2.5851973 -2.8607,1.6870793 -5.02501,4.0530647 -6.49204,7.0971428 -1.43034,3.007403 -2.14544,6.4912401 -2.14544,10.4522104 0,4.070996 0.6788,7.628602 2.0358,10.67268 1.39367,3.007403 2.34571,4.506619 6.27156,7.042025 2.23331,1.442323 8.49287,2.032644 12.54254,0.969005 3.06909,-0.806094 4.40882,-3.205716 4.40882,-3.205716 l 0.0427,4.178869 5.74232,0.01541 c 0,0 0.029,-3.337417 0.029,-6.332607 0,-2.99519 0.0101,-3.193435 0.0101,-5.52777 0,-3.502935 2.71973,-3.809047 2.71973,-3.809047 l 0.002,-3.865943 c 0,0 -11.14736,-0.809805 -13.19505,0.397677 -2.0477,1.207482 0.035,4.937478 0.035,4.937478 3.26088,-2.978131 4.83671,-1.009915 4.88296,2.119957 0,0 -0.14844,3.668912 -2.46015,5.49221 -2.31171,1.823298 -10.35862,4.345958 -13.87899,-0.375748 -2.05384,-2.970727 -3.08066,-7.207133 -3.08066,-12.708479 0,-5.5013477 0.98994,-9.7371608 2.97043,-12.70788694 1.98047,-3.00740296 5.30013,-4.51135286 9.95792,-4.51135286 1.79711,0 3.22729,0.3670635 4.29089,1.1005757 1.06359,0.6968383 1.81556,1.5951637 2.25567,2.6954325 0.47679,1.06359405 0.71476,2.1641898 0.71476,3.3011346 1.43034,0 2.64099,-0.3486207 3.63124,-1.045458 0.99024,-0.69683735 1.48522,-1.63204724 1.48522,-2.805668 0,-1.7604312 -1.00838,-3.2274967 -3.02555,-4.4011175 -2.01716,-1.1736209 -5.06135,-1.76021 -9.13235,-1.76021 z m 52.3215,0 c -3.85094,0 -7.09681,0.8620323 -9.73746,2.5857899 -2.60397,1.6870806 -4.58446,4.0524687 -5.94145,7.0965502 -1.32032,3.0074058 -1.98068,6.4912369 -1.98068,10.4522104 0,4.071 0.62348,7.628599 1.87045,10.67268 1.28364,3.007406 3.1725,5.354944 5.66645,7.042025 2.49395,1.687081 5.55658,2.530673 9.18747,2.530673 2.714,0 4.93244,-0.311736 6.6562,-0.935223 1.76042,-0.660162 3.0627,-1.466869 3.90624,-2.420437 0.84356,-0.953568 1.26534,-1.888776 1.26534,-2.805668 0,-0.550135 -0.11006,-0.990373 -0.33011,-1.320454 -0.18339,-0.366756 -0.42195,-0.6422 -0.71535,-0.82558 -0.9169,1.246974 -2.14539,2.347567 -3.68577,3.301135 -1.5037,0.916892 -3.59424,1.374979 -6.27157,1.374979 -2.67732,0 -4.85948,-0.696647 -6.54655,-2.090324 -1.68709,-1.393675 -2.93403,-3.337268 -3.74089,-5.831214 -0.77019,-2.530621 -1.15511,-5.428456 -1.15511,-8.692592 0,-5.5013523 0.86145,-9.7371572 2.5852,-12.70788694 1.76044,-3.00740586 4.71301,-4.51135286 8.85735,-4.51135286 1.61373,0 2.87911,0.3670622 3.79601,1.1005757 0.95356,0.6968381 1.63177,1.5951623 2.03521,2.6954325 0.40343,1.06359499 0.60511,2.1641888 0.60511,3.3011346 1.35699,0 2.49447,-0.3486199 3.41137,-1.045458 0.91689,-0.69683739 1.37498,-1.63204604 1.37498,-2.805668 0,-1.7604322 -0.91676,-3.2274955 -2.75055,-4.4011175 -1.83378,-1.1736221 -4.62097,-1.76021 -8.36189,-1.76021 z m -136.357602,0.4847986 0.01837,2.4091762 c 0,0 4.702481,-0.4466071 4.775681,2.3179061 0.07319,2.76451324 0.106679,20.9228736 0.106679,27.0538946 0,6.13102 -4.897177,5.204176 -4.897177,5.204176 l 0.003,2.379543 29.503969,-0.07823 0.43501,-9.652114 -2.87264,-0.01482 c 0,0 -1.48241,4.387495 -3.296395,5.538438 -3.658767,2.321432 -8.30912,1.135622 -12.93843,1.257632 L 86.567173,13.73014 98.866715,13.661984 98.79678,9.1399625 86.622884,9.0522484 86.593843,-4.4468432 c 0,0 7.40943,-0.9928725 10.436208,0.7396437 2.038572,1.1668709 3.989219,5.8086929 3.989219,5.8086929 l 2.76063,-0.087122 -0.32597,-9.7161219 c -9.230975,0.01891 -18.463705,0.1160839 -27.693972,-0.012445 z m -40.853465,0.048006 0.0563,2.3143501 c 0,0 5.009783,-0.7147819 5.009783,3.4605609 0,4.1753429 -0.05571,21.7380339 -0.05571,26.8583149 0,5.120281 -5.027562,4.332369 -5.027562,4.332369 l 0.03971,2.333315 16.082511,0.0065 -0.03082,-2.405027 c 0,0 -5.272925,0.948799 -5.272925,-3.999885 0,-4.948684 0.02489,-12.733963 0.02489,-12.733963 l 4.941627,-0.02193 3.677475,3.471229 3.814381,-3.485452 5.480358,-0.02489 c 0,0 -0.03734,7.687482 -0.03734,12.690699 0,5.003216 -5.26048,4.155162 -5.26048,4.155162 l 0.02726,2.371838 16.023837,0.03319 -0.01304,-2.389025 c 0,0 -5.274111,0.691222 -5.274111,-4.015294 0,-4.706517 0.02845,-23.1678256 0.02845,-27.1688706 0,-4.001046 5.271147,-3.4398177 5.271147,-3.4398177 l -0.0047,-2.3090161 -16.049915,-0.032597 -0.0089,2.3736164 c 0,0 5.224327,-0.8257562 5.224327,3.5512384 0,4.3769937 0.06223,11.5190031 0.06223,11.5190031 l -5.568072,0.0036 -3.7563,-3.6626586 -3.689921,3.6644366 -4.865766,0.003 c 0,0 -0.01304,-8.0270577 -0.01304,-11.8538578 0,-3.8268002 5.220178,-3.2294223 5.220178,-3.2294223 l -0.01304,-2.3665045 z m 72.363007,0 0.003,2.3190914 c 0,0 4.84443,-0.3551605 4.84443,2.7309924 0,3.0861529 0.22521,22.6048591 0.22521,27.5546941 0,4.949835 -5.05067,4.382153 -5.05067,4.382153 l -0.0421,2.313164 16.0594,-0.0065 -0.0154,-2.307238 c 0,0 -5.32686,0.747032 -5.32686,-4.258286 0,-5.005318 0.0747,-29.679392 0.0747,-29.679392 0,0 12.1899,-2.813205 12.1899,7.124998 0,9.938204 -11.73473,9.233694 -11.73473,9.233694 l 1.50596,2.627869 2.60475,-0.0071 c 18.08587,31.066941 46.53012,30.729268 75.49878,17.172419 -40.60726,14.442684 -55.06971,3.733999 -69.89574,-18.257585 0,0 7.84627,-0.111833 7.84627,-11.1533308 0,-11.0414969 -13.80794,-9.7339018 -17.94288,-9.7339018 -4.13495,0 -10.84396,-0.05571 -10.84396,-0.05571 z m 68.72997,0.017187 v 2.3107942 h 0.71476 c 1.24697,0 2.31068,0.237968 3.1909,0.7147519 0.88021,0.4401084 1.32045,1.52226 1.32045,3.2460167 V 25.359379 c 0,1.723757 -0.44024,2.823758 -1.32045,3.300542 -0.88022,0.440108 -1.94393,0.660227 -3.1909,0.660227 h -0.71476 v 2.310794 h 16.00843 v -2.310794 h -0.71475 c -1.24697,0 -2.31068,-0.220119 -3.1909,-0.660227 -0.88021,-0.476784 -1.32045,-1.576785 -1.32045,-3.300542 V -1.3774402 c 0,-1.7237567 0.44024,-2.8059083 1.32045,-3.2460167 0.88022,-0.4767839 1.94393,-0.7147519 3.1909,-0.7147519 h 0.71475 V -7.649003 Z"
       sodipodi:nodetypes="cccccscccscscscccccccccccccccsccscsscccssccsccscscscccssssssccscsscsscccsscscscccssssccsscccccsccccccsccccccssccccscccccsccccssccccscccccscccccssccccscscccccssccccscsscsccccscsscsccc" /><path
       id="path1675"
       style="display:inline;fill:#ffff00;fill-opacity:1;stroke-width:0.306248"
       d="m -8.6539843,-24.577371 -0.4166423,14.566477 h 4.32822 l 0.4166423,-3.579092 c 0.2219589,-1.831163 0.804438,-3.413109 1.747764,-4.744862 0.943326,-1.387245 2.63579663,-2.080841 5.0773464,-2.080841 h 7.9902869 l 0.0089,69.82621 17.137452,-19.7185 h -1.914303 c -1.886653,0 -3.496081,-0.333352 -4.827835,-0.999231 -1.331757,-0.721366 -1.997275,-2.385762 -1.997275,-4.99378 v -44.114699 h 8.073852 c 2.49704,0 4.216993,0.693596 5.160319,2.080841 0.943326,1.331753 1.525805,2.913699 1.747764,4.744862 l 0.416642,3.579092 h 4.32822 l -0.416642,-14.566477 z m 191.5920443,0.17168 -2.3908,4.487646 -4.43431,2.488593 4.48765,2.391397 2.48859,4.434305 2.3914,-4.488238 4.4343,-2.488593 -4.48824,-2.390804 z m -23.70179,15.5941554 c -4.21771,0 -7.75687,0.861442 -10.61756,2.5851973 -2.8607,1.6870793 -5.02501,4.0530647 -6.49204,7.09714276 -1.43034,3.00740304 -2.14544,6.49124014 -2.14544,10.45221054 0,4.070996 0.6788,7.628602 2.0358,10.67268 1.39367,3.007403 2.34571,4.506619 6.27156,7.042025 2.23331,1.442323 8.49287,2.032644 12.54254,0.969005 3.06909,-0.806094 4.40882,-3.205716 4.40882,-3.205716 l 0.0427,4.178869 5.74232,0.01541 c 0,0 0.029,-3.337417 0.029,-6.332607 0,-2.99519 0.0101,-3.193435 0.0101,-5.52777 0,-3.502935 2.71973,-3.809047 2.71973,-3.809047 l 0.002,-3.865943 c 0,0 -11.14736,-0.809805 -13.19505,0.397677 -2.0477,1.207482 0.035,4.937478 0.035,4.937478 3.26088,-2.978131 4.83671,-1.009915 4.88296,2.119957 0,0 -0.14844,3.668912 -2.46015,5.49221 -2.31171,1.823298 -10.35862,4.345958 -13.87899,-0.375748 -2.05384,-2.970727 -3.08066,-7.207133 -3.08066,-12.708479 0,-5.5013478 0.98994,-9.7371609 2.97043,-12.7078871 1.98047,-3.0074029 5.30013,-4.5113528 9.95792,-4.5113528 1.79711,0 3.22729,0.3670635 4.29089,1.1005757 1.06359,0.6968383 1.81556,1.5951637 2.25567,2.6954325 0.47679,1.063594 0.71476,2.16418976 0.71476,3.3011346 1.43034,0 2.64099,-0.34862074 3.63124,-1.04545804 0.99024,-0.69683735 1.48522,-1.63204726 1.48522,-2.80566796 0,-1.7604312 -1.00838,-3.2274967 -3.02555,-4.4011175 -2.01716,-1.1736209 -5.06135,-1.76021 -9.13235,-1.76021 z m 52.3215,0 c -3.85094,0 -7.09681,0.8620323 -9.73746,2.5857899 -2.60397,1.6870806 -4.58446,4.0524687 -5.94145,7.09655016 -1.32032,3.00740584 -1.98068,6.49123694 -1.98068,10.45221054 0,4.071 0.62348,7.628599 1.87045,10.67268 1.28364,3.007406 3.1725,5.354944 5.66645,7.042025 2.49395,1.687081 5.55658,2.530673 9.18747,2.530673 2.714,0 4.93244,-0.311736 6.6562,-0.935223 1.76042,-0.660162 3.0627,-1.466869 3.90624,-2.420437 0.84356,-0.953568 1.26534,-1.888776 1.26534,-2.805668 0,-0.550135 -0.11006,-0.990373 -0.33011,-1.320454 -0.18339,-0.366756 -0.42195,-0.6422 -0.71535,-0.82558 -0.9169,1.246974 -2.14539,2.347567 -3.68577,3.301135 -1.5037,0.916892 -3.59424,1.374979 -6.27157,1.374979 -2.67732,0 -4.85948,-0.696647 -6.54655,-2.090324 -1.68709,-1.393675 -2.93403,-3.337268 -3.74089,-5.831214 -0.77019,-2.530621 -1.15511,-5.428456 -1.15511,-8.692592 0,-5.5013524 0.86145,-9.7371573 2.5852,-12.7078871 1.76044,-3.0074058 4.71301,-4.5113528 8.85735,-4.5113528 1.61373,0 2.87911,0.3670622 3.79601,1.1005757 0.95356,0.6968381 1.63177,1.5951623 2.03521,2.6954325 0.40343,1.063595 0.60511,2.16418876 0.60511,3.3011346 1.35699,0 2.49447,-0.34861994 3.41137,-1.04545804 0.91689,-0.69683739 1.37498,-1.63204606 1.37498,-2.80566796 0,-1.7604322 -0.91676,-3.2274955 -2.75055,-4.4011175 -1.83378,-1.1736221 -4.62097,-1.76021 -8.36189,-1.76021 z m -136.357604,0.4847986 0.01837,2.4091762 c 0,0 4.702481,-0.4466071 4.775681,2.3179061 0.07319,2.7645132 0.106679,20.9228737 0.106679,27.0538947 0,6.13102 -4.897177,5.204176 -4.897177,5.204176 l 0.003,2.379543 29.503971,-0.07823 0.43501,-9.652114 -2.87264,-0.01482 c 0,0 -1.48241,4.387495 -3.296397,5.538438 -3.658767,2.321432 -8.30912,1.135622 -12.93843,1.257632 l -0.03085,-14.971266 12.299542,-0.06816 -0.06994,-4.5220216 -12.173896,-0.087714 -0.02904,-13.4990916 c 0,0 7.40943,-0.9928725 10.436208,0.7396437 2.038572,1.1668709 3.989223,5.8086929 3.989223,5.8086929 l 2.76063,-0.087122 -0.32597,-9.7161219 c -9.230979,0.01891 -18.463709,0.1160839 -27.693976,-0.012445 z m -40.853465,0.048006 0.0563,2.3143501 c 0,0 5.009783,-0.7147819 5.009783,3.4605609 0,4.1753429 -0.05571,21.738034 -0.05571,26.858315 0,5.120281 -5.027562,4.332369 -5.027562,4.332369 l 0.03971,2.333315 16.082511,0.0065 -0.03082,-2.405027 c 0,0 -5.272925,0.948799 -5.272925,-3.999885 0,-4.948684 0.02489,-12.733963 0.02489,-12.733963 l 4.941627,-0.02193 3.677475,3.471229 3.814381,-3.485452 5.480358,-0.02489 c 0,0 -0.03734,7.687482 -0.03734,12.690699 0,5.003216 -5.26048,4.155162 -5.26048,4.155162 l 0.02726,2.371838 16.023837,0.03319 -0.01304,-2.389025 c 0,0 -5.274111,0.691222 -5.274111,-4.015294 0,-4.706517 0.02845,-23.1678257 0.02845,-27.1688707 0,-4.001046 5.271147,-3.4398177 5.271147,-3.4398177 l -0.0047,-2.3090161 -16.049915,-0.032597 -0.0089,2.3736164 c 0,0 5.224327,-0.8257562 5.224327,3.5512384 0,4.3769937 0.06223,11.5190031 0.06223,11.5190031 l -5.568072,0.0036 -3.7563,-3.6626586 -3.689921,3.6644366 -4.865766,0.003 c 0,0 -0.01304,-8.0270577 -0.01304,-11.8538578 0,-3.8268002 5.220178,-3.2294223 5.220178,-3.2294223 l -0.01304,-2.3665045 z m 72.363009,0 0.003,2.3190914 c 0,0 4.84443,-0.3551605 4.84443,2.7309924 0,3.08615286 0.22521,22.6048592 0.22521,27.5546942 0,4.949835 -5.05067,4.382153 -5.05067,4.382153 l -0.0421,2.313164 16.0594,-0.0065 -0.0154,-2.307238 c 0,0 -5.32686,0.747032 -5.32686,-4.258286 0,-5.005318 0.0747,-29.6793921 0.0747,-29.6793921 0,0 12.1899,-2.813205 12.1899,7.124998 0,9.9382041 -11.73473,9.2336941 -11.73473,9.2336941 l 1.50596,2.627869 2.60475,-0.0071 c 18.08587,31.066941 46.53012,30.729268 75.49878,17.172419 -40.60726,14.442684 -55.06971,3.733999 -69.89574,-18.257585 0,0 7.84627,-0.111833 7.84627,-11.1533309 0,-11.0414969 -13.80794,-9.7339018 -17.94288,-9.7339018 -4.13495,0 -10.84396,-0.05571 -10.84396,-0.05571 z m 68.72997,0.017187 v 2.3107942 h 0.71476 c 1.24697,0 2.31068,0.237968 3.1909,0.7147519 0.88021,0.4401084 1.32045,1.52226 1.32045,3.2460167 V 24.746838 c 0,1.723757 -0.44024,2.823758 -1.32045,3.300542 -0.88022,0.440108 -1.94393,0.660227 -3.1909,0.660227 h -0.71476 v 2.310794 h 16.00843 v -2.310794 h -0.71475 c -1.24697,0 -2.31068,-0.220119 -3.1909,-0.660227 -0.88021,-0.476784 -1.32045,-1.576785 -1.32045,-3.300542 V -1.9899813 c 0,-1.7237567 0.44024,-2.8059083 1.32045,-3.2460167 0.88022,-0.4767839 1.94393,-0.7147519 3.1909,-0.7147519 h 0.71475 v -2.3107942 z"
       sodipodi:nodetypes="cccccscccscscscccccccccccccccsccscsscccssccsccscscscccssssssccscsscsscccsscscscccssssccsscccccsccccccsccccccssccccscccccsccccssccccscccccscccccssccccscscccccssccccscsscsccccscsscscccc" /><path
       id="path1506"
       style="display:inline;fill:url(#linearGradient1501);fill-opacity:1;stroke-width:0.306248"
       d="M -8.4109677,-24.324317 -8.82761,-9.7578391 h 4.32822 l 0.4166423,-3.5790929 c 0.2219589,-1.831163 0.804438,-3.413109 1.747764,-4.744862 0.943326,-1.387245 2.6357967,-2.080841 5.0773464,-2.080841 h 7.9902863 l 0.0089,69.82621 17.137452,-19.7185 h -1.914303 c -1.886653,0 -3.496081,-0.333352 -4.827835,-0.999231 -1.331757,-0.721366 -1.997275,-2.385762 -1.997275,-4.99378 v -44.114699 h 8.073852 c 2.49704,0 4.216993,0.693596 5.160319,2.080841 0.943326,1.331753 1.525805,2.913699 1.747764,4.744862 l 0.416642,3.5790929 h 4.32822 L 38.449743,-24.324317 Z m 191.5920377,0.17168 -2.3908,4.487646 -4.43431,2.488593 4.48765,2.391397 2.48859,4.434306 2.3914,-4.488239 4.4343,-2.488593 -4.48824,-2.390804 z m -23.70179,15.5941561 c -4.21771,0 -7.75687,0.861442 -10.61756,2.5851973 -2.8607,1.6870793 -5.02501,4.0530648 -6.49204,7.0971428 -1.43034,3.007403 -2.14544,6.4912401 -2.14544,10.4522098 0,4.070996 0.6788,7.628602 2.0358,10.67268 1.39367,3.007403 2.34571,4.506619 6.27156,7.042025 2.23331,1.442323 8.49287,2.032644 12.54254,0.969005 3.06909,-0.806094 4.40882,-3.205716 4.40882,-3.205716 l 0.0427,4.178869 5.74232,0.01541 c 0,0 0.029,-3.337417 0.029,-6.332607 0,-2.99519 0.0101,-3.193435 0.0101,-5.52777 0,-3.502935 2.71973,-3.809047 2.71973,-3.809047 l 0.002,-3.865943 c 0,0 -11.14736,-0.809805 -13.19505,0.397677 -2.0477,1.207482 0.035,4.937478 0.035,4.937478 3.26088,-2.978131 4.83671,-1.009915 4.88296,2.119957 0,0 -0.14844,3.668912 -2.46015,5.49221 -2.31171,1.823298 -10.35862,4.345958 -13.87899,-0.375748 -2.05384,-2.970727 -3.08066,-7.207133 -3.08066,-12.708479 0,-5.5013471 0.98994,-9.7371602 2.97043,-12.7078863 1.98047,-3.007403 5.30013,-4.5113529 9.95792,-4.5113529 1.79711,0 3.22729,0.3670635 4.29089,1.1005757 1.06359,0.6968383 1.81556,1.5951637 2.25567,2.6954326 0.47679,1.06359399 0.71476,2.16418969 0.71476,3.3011345 1.43034,0 2.64099,-0.3486207 3.63124,-1.045458 0.99024,-0.69683731 1.48522,-1.6320472 1.48522,-2.805668 0,-1.7604312 -1.00838,-3.2274967 -3.02555,-4.4011175 -2.01716,-1.1736209 -5.06135,-1.76021 -9.13235,-1.76021 z m 52.3215,0 c -3.85094,0 -7.09681,0.8620323 -9.73746,2.5857899 -2.60397,1.6870806 -4.58446,4.0524688 -5.94145,7.0965502 -1.32032,3.0074058 -1.98068,6.4912369 -1.98068,10.4522098 0,4.071 0.62348,7.628599 1.87045,10.67268 1.28364,3.007406 3.1725,5.354944 5.66645,7.042025 2.49395,1.687081 5.55658,2.530673 9.18747,2.530673 2.714,0 4.93244,-0.311736 6.6562,-0.935223 1.76042,-0.660162 3.0627,-1.466869 3.90624,-2.420437 0.84356,-0.953568 1.26534,-1.888776 1.26534,-2.805668 0,-0.550135 -0.11006,-0.990373 -0.33011,-1.320454 -0.18339,-0.366756 -0.42195,-0.6422 -0.71535,-0.82558 -0.9169,1.246974 -2.14539,2.347567 -3.68577,3.301135 -1.5037,0.916892 -3.59424,1.374979 -6.27157,1.374979 -2.67732,0 -4.85948,-0.696647 -6.54655,-2.090324 -1.68709,-1.393675 -2.93403,-3.337268 -3.74089,-5.831214 -0.77019,-2.530621 -1.15511,-5.428456 -1.15511,-8.692592 0,-5.5013517 0.86145,-9.7371566 2.5852,-12.7078863 1.76044,-3.0074059 4.71301,-4.5113529 8.85735,-4.5113529 1.61373,0 2.87911,0.3670622 3.79601,1.1005757 0.95356,0.6968381 1.63177,1.5951623 2.03521,2.6954326 0.40343,1.06359493 0.60511,2.16418876 0.60511,3.3011345 1.35699,0 2.49447,-0.3486199 3.41137,-1.045458 0.91689,-0.69683735 1.37498,-1.632046 1.37498,-2.805668 0,-1.7604322 -0.91676,-3.2274955 -2.75055,-4.4011175 -1.83378,-1.1736221 -4.62097,-1.76021 -8.36189,-1.76021 z m -136.357598,0.4847986 0.01837,2.4091762 c 0,0 4.702481,-0.4466071 4.775681,2.3179061 0.07319,2.76451328 0.106679,20.922873 0.106679,27.053894 0,6.13102 -4.897177,5.204176 -4.897177,5.204176 l 0.003,2.379543 29.503965,-0.07823 0.43501,-9.652114 -2.87264,-0.01482 c 0,0 -1.48241,4.387495 -3.296389,5.538438 -3.658769,2.321432 -8.309122,1.135622 -12.938432,1.257632 L 86.250397,13.370653 98.549939,13.302497 98.480004,8.7804761 86.306108,8.692762 86.277067,-4.8063296 c 0,0 7.40943,-0.9928725 10.436208,0.7396437 2.038572,1.1668709 3.989215,5.8086929 3.989215,5.8086929 l 2.76063,-0.087122 -0.32597,-9.7161219 c -9.230971,0.01891 -18.463701,0.1160839 -27.693968,-0.012445 z m -40.853465,0.048006 0.0563,2.3143501 c 0,0 5.009783,-0.7147819 5.009783,3.4605609 0,4.1753429 -0.05571,21.7380333 -0.05571,26.8583143 0,5.120281 -5.027562,4.332369 -5.027562,4.332369 l 0.03971,2.333315 16.082511,0.0065 -0.03082,-2.405027 c 0,0 -5.272925,0.948799 -5.272925,-3.999885 0,-4.948684 0.02489,-12.733963 0.02489,-12.733963 l 4.941627,-0.02193 3.677475,3.471229 3.814381,-3.485452 5.480358,-0.02489 c 0,0 -0.03734,7.687482 -0.03734,12.690699 0,5.003216 -5.26048,4.155162 -5.26048,4.155162 l 0.02726,2.371838 16.023837,0.03319 -0.01304,-2.389025 c 0,0 -5.274111,0.691222 -5.274111,-4.015294 0,-4.706517 0.02845,-23.167825 0.02845,-27.16887 0,-4.001046 5.271147,-3.4398177 5.271147,-3.4398177 l -0.0047,-2.3090161 -16.049915,-0.032597 -0.0089,2.3736164 c 0,0 5.224327,-0.8257562 5.224327,3.5512384 0,4.3769937 0.06223,11.5190036 0.06223,11.5190036 l -5.568072,0.00356 -3.7563,-3.6626591 -3.689921,3.6644371 -4.865766,0.00296 c 0,0 -0.01304,-8.0270582 -0.01304,-11.8538583 0,-3.8268002 5.220178,-3.2294223 5.220178,-3.2294223 l -0.01304,-2.3665045 z m 72.363003,0 0.003,2.3190914 c 0,0 4.84443,-0.3551605 4.84443,2.7309924 0,3.08615298 0.22521,22.6048585 0.22521,27.5546935 0,4.949835 -5.05067,4.382153 -5.05067,4.382153 l -0.0421,2.313164 16.0594,-0.0065 -0.0154,-2.307238 c 0,0 -5.32686,0.747032 -5.32686,-4.258286 0,-5.005318 0.0747,-29.6793914 0.0747,-29.6793914 0,0 12.1899,-2.813205 12.1899,7.124998 0,9.9382034 -11.73473,9.2336934 -11.73473,9.2336934 l 1.50596,2.627869 2.60475,-0.0071 c 18.08587,31.066941 46.53012,30.729268 75.49878,17.172419 -40.60726,14.442684 -55.06971,3.733999 -69.89574,-18.257585 0,0 7.84627,-0.111833 7.84627,-11.1533302 0,-11.0414969 -13.80794,-9.7339018 -17.94288,-9.7339018 -4.13495,0 -10.84396,-0.05571 -10.84396,-0.05571 z m 68.72997,0.017187 v 2.3107942 h 0.71476 c 1.24697,0 2.31068,0.237968 3.1909,0.7147519 0.88021,0.4401084 1.32045,1.52226 1.32045,3.2460168 V 24.999892 c 0,1.723757 -0.44024,2.823758 -1.32045,3.300542 -0.88022,0.440108 -1.94393,0.660227 -3.1909,0.660227 h -0.71476 v 2.310794 h 16.00843 v -2.310794 h -0.71475 c -1.24697,0 -2.31068,-0.220119 -3.1909,-0.660227 -0.88021,-0.476784 -1.32045,-1.576785 -1.32045,-3.300542 V -1.7369265 c 0,-1.7237568 0.44024,-2.8059084 1.32045,-3.2460168 0.88022,-0.4767839 1.94393,-0.7147519 3.1909,-0.7147519 h 0.71475 v -2.3107942 z"
       sodipodi:nodetypes="cccccscccscscscccccccccccccccsccscsscccssccsccscscscccssssssccscsscsscccsscscscccssssccsscccccsccccccsccccccssccccscccccsccccssccccscccccscccccssccccscscccccssccccscsscsccccscsscsccc"
       sodipodi:insensitive="true"
       transform="translate(-1.5052714e-7)" /></g><path
     id="rect361"
     style="fill:#000000;stroke-width:0.264583"
     d="m 148.34023,166.94972 c -11.07998,0 -20.00033,8.92034 -20.00033,20.00033 v 32.55615 c 0,11.07999 8.92035,19.99981 20.00033,19.99981 h 32.55616 c 11.07999,0 19.99981,-8.91982 19.99981,-19.99981 v -32.55615 c 0,-11.07999 -8.91982,-20.00033 -19.99981,-20.00033 z m -1.28364,9.28573 h 34.5426 l 0.37,13.68392 h -3.84628 l -0.2961,-2.21898 c -0.19725,-1.47934 -0.73969,-2.76143 -1.62729,-3.84628 -0.8383,-1.13416 -2.36676,-1.70119 -4.58577,-1.70119 h -14.57172 c -2.21901,0 -3.77206,0.56703 -4.65967,1.70119 -0.83829,1.08485 -1.35614,2.36694 -1.55339,3.84628 l -0.2961,2.21898 h -3.84628 z m 5.54747,18.5658 h 3.10678 l 0.36949,1.40559 c 0.29587,1.08485 0.83831,1.92284 1.62729,2.51458 0.78898,0.59174 2.29338,0.8878 4.51239,0.8878 h 4.06797 c 1.97245,0 3.45174,-0.29606 4.43797,-0.8878 0.98622,-0.64105 1.60242,-1.47904 1.84898,-2.51458 l 0.37,-1.40559 h 3.10679 v 14.05392 h -3.10679 l -0.37,-1.4056 c -0.24656,-1.03554 -0.86276,-1.84894 -1.84898,-2.44068 -0.98623,-0.64105 -2.46552,-0.9617 -4.43797,-0.9617 h -4.06797 c -2.21901,0 -3.72341,0.29607 -4.51239,0.8878 -0.78898,0.59174 -1.33142,1.42973 -1.62729,2.51458 l -0.36949,1.4056 h -3.10678 z m -8.13646,19.67528 h 3.84628 l 0.29611,2.21899 c 0.19724,1.47934 0.7151,2.78601 1.55339,3.92017 0.8876,1.08485 2.44065,1.62729 4.65966,1.62729 h 19.0097 c 2.219,0 3.74747,-0.54244 4.58576,-1.62729 0.8876,-1.13416 1.43005,-2.44083 1.62729,-3.92017 l 0.29611,-2.21899 h 3.84628 l -0.37001,14.57172 h -38.98056 z"
     inkscape:export-filename="source/config/favicon/safari-pinned-tab.svg"
     inkscape:export-xdpi="72.812607"
     inkscape:export-ydpi="72.812607" /><rect
     style="fill:#000000;stroke-width:0.264583"
     id="rect489"
     width="73.136292"
     height="73.136292"
     x="46.684673"
     y="168.51894"
     rx="20"
     ry="20"
     inkscape:export-filename="source/arise-icon.png"
     inkscape:export-xdpi="72.812607"
     inkscape:export-ydpi="72.812607" /><text
     xml:space="preserve"
     style="font-size:74.3766px;font-family:serif;-inkscape-font-specification:serif;fill:#cccccc;stroke-width:6.19804"
     x="60.013744"
     y="229.94165"
     id="text597"><tspan
       sodipodi:role="line"
       id="tspan595"
       style="fill:#cccccc;stroke-width:6.19804"
       x="60.013744"
       y="229.94165">Ξ</tspan></text></svg>
