<?xml version="1.0" encoding="UTF-8" standalone="no"?>
<!-- Created with Inkscape (http://www.inkscape.org/) -->

<svg
   width="72.55629mm"
   height="72.556305mm"
   viewBox="0 0 72.55629 72.556305"
   version="1.1"
   id="SVGRoot"
   xml:space="preserve"
   xmlns="http://www.w3.org/2000/svg"
   xmlns:svg="http://www.w3.org/2000/svg"><defs
     id="defs587" /><path
     id="rect361"
     style="fill:#000000;stroke-width:0.264583"
     d="M 20.000329,-3.1240069e-7 C 8.9203494,-3.1240069e-7 -6.12016e-7,8.9203397 -6.12016e-7,20.00033 V 52.55648 C -6.12016e-7,63.63647 8.9203494,72.55629 20.000329,72.55629 h 32.55616 c 11.07999,0 19.99981,-8.91982 19.99981,-19.99981 V 20.00033 C 72.556299,8.9203397 63.636479,-3.1240069e-7 52.556489,-3.1240069e-7 Z M 18.716689,9.2857297 h 34.5426 l 0.37,13.6839203 h -3.84628 l -0.2961,-2.21898 c -0.19725,-1.47934 -0.73969,-2.76143 -1.62729,-3.84628 -0.8383,-1.13416 -2.36676,-1.70119 -4.58577,-1.70119 h -14.57172 c -2.21901,0 -3.77206,0.56703 -4.65967,1.70119 -0.83829,1.08485 -1.35614,2.36694 -1.55339,3.84628 l -0.2961,2.21898 h -3.84628 z m 5.54747,18.5658003 h 3.10678 l 0.36949,1.40559 c 0.29587,1.08485 0.83831,1.92284 1.62729,2.51458 0.78898,0.59174 2.29338,0.8878 4.51239,0.8878 h 4.06797 c 1.97245,0 3.45174,-0.29606 4.43797,-0.8878 0.98622,-0.64105 1.60242,-1.47904 1.84898,-2.51458 l 0.37,-1.40559 h 3.10679 v 14.05392 h -3.10679 l -0.37,-1.4056 c -0.24656,-1.03554 -0.86276,-1.84894 -1.84898,-2.44068 -0.98623,-0.64105 -2.46552,-0.9617 -4.43797,-0.9617 h -4.06797 c -2.21901,0 -3.72341,0.29607 -4.51239,0.8878 -0.78898,0.59174 -1.33142,1.42973 -1.62729,2.51458 l -0.36949,1.4056 h -3.10678 z m -8.13646,19.67528 h 3.84628 l 0.29611,2.21899 c 0.19724,1.47934 0.7151,2.78601 1.55339,3.92017 0.8876,1.08485 2.44065,1.62729 4.65966,1.62729 h 19.0097 c 2.219,0 3.74747,-0.54244 4.58576,-1.62729 0.8876,-1.13416 1.43005,-2.44083 1.62729,-3.92017 l 0.29611,-2.21899 h 3.84628 l -0.37001,14.57172 h -38.98056 z" /></svg>
