<?xml version="1.0" encoding="UTF-8" standalone="no"?>
<!-- Created with Inkscape (http://www.inkscape.org/) -->

<svg
   width="73.413597mm"
   height="73.413086mm"
   viewBox="0 0 73.413597 73.413086"
   version="1.1"
   id="SVGRoot"
   sodipodi:docname="thergic.svg"
   xml:space="preserve"
   inkscape:version="1.2.2 (b0a8486541, 2022-12-01)"
   xmlns:inkscape="http://www.inkscape.org/namespaces/inkscape"
   xmlns:sodipodi="http://sodipodi.sourceforge.net/DTD/sodipodi-0.dtd"
   xmlns="http://www.w3.org/2000/svg"
   xmlns:svg="http://www.w3.org/2000/svg"><sodipodi:namedview
     id="namedview592"
     pagecolor="#505050"
     bordercolor="#ffffff"
     borderopacity="1"
     inkscape:showpageshadow="0"
     inkscape:pageopacity="0"
     inkscape:pagecheckerboard="1"
     inkscape:deskcolor="#505050"
     inkscape:document-units="mm"
     showgrid="false"
     inkscape:zoom="0.65741662"
     inkscape:cx="155.15275"
     inkscape:cy="485.23264"
     inkscape:window-width="1920"
     inkscape:window-height="1012"
     inkscape:window-x="1920"
     inkscape:window-y="0"
     inkscape:window-maximized="1"
     inkscape:current-layer="SVGRoot" /><defs
     id="defs587" /><g
     id="g1810"
     style="display:inline;fill:#5f8dd3"
     transform="matrix(0.87193578,0,0,0.87193578,24.241505,80.974681)"
     inkscape:export-filename="arise-source/config/favicon/safari-pinned-tab.png"
     inkscape:export-xdpi="72.812607"
     inkscape:export-ydpi="72.812607"><path
       id="rect1804"
       style="display:inline;fill:#1c241f;stroke-width:0.264583"
       d="m 13.986344,164.44869 c -11.0799888,0 -19.9998119,8.91982 -19.9998119,19.99981 v 33.41347 c 0,11.07998 8.9198231,19.99981 19.9998119,19.99981 h 33.413463 c 11.079989,0 20.000329,-8.91983 20.000329,-19.99981 V 184.4485 c 0,-11.07999 -8.92034,-19.99981 -20.000329,-19.99981 z M 3.6371054,174.06671 H 39.777017 l 0.321427,11.23394 h -3.338297 l -0.320911,-2.76004 c -0.171178,-1.41223 -0.620726,-2.63266 -1.348238,-3.65973 -0.72751,-1.06986 -2.053836,-1.60455 -3.979602,-1.60455 h -6.22701 v 34.02221 c 0,2.01135 0.513397,3.29511 1.540475,3.85145 1.027074,0.51354 2.268263,0.77049 3.723287,0.77049 h 1.476395 l -13.216764,15.20734 -0.0067,-53.85149 h -6.162415 c -1.882971,0 -3.1880109,0.53469 -3.9155229,1.60455 -0.7275119,1.02707 -1.1770589,2.2475 -1.3482381,3.65973 l -0.3209106,2.76004 H 3.315678 Z m 43.8820746,15.12414 4.271573,7.80986 7.810376,4.27157 -7.810376,4.27157 -4.271573,7.80986 -4.271574,-7.80986 -7.809859,-4.27157 7.809859,-4.27157 z"
       transform="matrix(1.1468735,0,0,1.1468735,-20.905251,-281.46955)" /></g></svg>
